<svg xmlns="http://www.w3.org/2000/svg" xmlns:xlink="http://www.w3.org/1999/xlink" width="500" zoomAndPan="magnify" viewBox="0 0 375 374.999991" height="500" preserveAspectRatio="xMidYMid meet" version="1.2"><defs><clipPath id="6bbbbf0d95"><path d="M 171 0 L 357.800781 0 L 357.800781 238 L 171 238 Z M 171 0 "/></clipPath><clipPath id="9424c212a8"><path d="M 1.308594 146 L 178 146 L 178 179 L 1.308594 179 Z M 1.308594 146 "/></clipPath><clipPath id="1104222c02"><rect x="0" width="358" y="0" height="346"/></clipPath></defs><g id="a49955fe44"><g transform="matrix(1,0,0,1,7,18)"><g clip-path="url(#1104222c02)"><path style=" stroke:none;fill-rule:evenodd;fill:#2563eb;fill-opacity:1;" d="M 198.398438 272.027344 C 197.214844 272.027344 196.054688 271.648438 195.089844 270.9375 L 140.769531 230.738281 C 138.300781 228.914062 137.78125 225.429688 139.605469 222.964844 C 144.644531 216.15625 152.027344 211.71875 160.402344 210.46875 C 168.777344 209.214844 177.136719 211.300781 183.945312 216.339844 L 196.242188 225.4375 C 203.046875 230.472656 207.484375 237.859375 208.734375 246.234375 C 209.988281 254.609375 207.902344 262.96875 202.867188 269.773438 C 201.988281 270.960938 200.679688 271.746094 199.21875 271.964844 C 198.945312 272.007812 198.671875 272.027344 198.398438 272.027344 Z M 152.457031 225.558594 L 196.621094 258.242188 C 199.816406 249.835938 197.203125 239.980469 189.628906 234.375 L 177.332031 225.273438 C 172.910156 222.003906 167.480469 220.652344 162.046875 221.464844 C 158.492188 221.996094 155.214844 223.410156 152.457031 225.558594 Z M 152.457031 225.558594 "/><g clip-rule="nonzero" clip-path="url(#6bbbbf0d95)"><path style=" stroke:none;fill-rule:evenodd;fill:#2563eb;fill-opacity:1;" d="M 195.667969 237.792969 C 194.519531 237.792969 193.359375 237.4375 192.367188 236.703125 C 189.898438 234.878906 189.378906 231.398438 191.203125 228.929688 L 344.964844 21.132812 C 346.9375 18.472656 346.371094 14.703125 343.710938 12.730469 C 342.417969 11.773438 340.835938 11.378906 339.246094 11.617188 C 337.660156 11.855469 336.261719 12.699219 335.304688 13.988281 L 181.484375 221.863281 C 179.660156 224.328125 176.179688 224.851562 173.710938 223.023438 C 171.242188 221.199219 170.722656 217.714844 172.546875 215.25 L 326.371094 7.375 C 329.089844 3.699219 333.078125 1.300781 337.601562 0.625 C 342.132812 -0.0507812 346.648438 1.074219 350.324219 3.796875 C 357.914062 9.410156 359.519531 20.15625 353.902344 27.746094 L 200.140625 235.542969 C 199.050781 237.015625 197.367188 237.792969 195.667969 237.792969 Z M 195.667969 237.792969 "/></g><path style=" stroke:none;fill-rule:evenodd;fill:#2563eb;fill-opacity:1;" d="M 255 339.023438 L 131.875 339.023438 C 114.132812 339.023438 99.035156 332.785156 88.21875 320.980469 C 78.652344 310.542969 73.167969 296.476562 72.78125 281.378906 C 72.394531 266.296875 77.136719 251.992188 86.136719 241.101562 C 96.316406 228.78125 111.050781 221.792969 128.75 220.882812 C 138.0625 220.402344 144.109375 220.707031 144.363281 220.722656 C 147.429688 220.882812 149.785156 223.496094 149.625 226.5625 C 149.464844 229.628906 146.855469 231.976562 143.785156 231.824219 C 143.628906 231.816406 137.929688 231.542969 129.320312 231.984375 C 97.285156 233.628906 83.316406 258.59375 83.894531 281.09375 C 84.472656 303.640625 99.734375 327.90625 131.875 327.90625 L 255 327.90625 C 257.0625 327.90625 258.882812 326.820312 259.871094 324.996094 C 260.332031 324.144531 261.238281 321.902344 259.671875 319.488281 C 254.238281 311.128906 237.222656 302.695312 211.457031 302.695312 C 198.75 302.695312 181.441406 301.414062 177.871094 290.351562 C 175.984375 284.507812 178.597656 277.769531 185.644531 270.328125 C 190.128906 265.59375 194.941406 262.105469 195.144531 261.957031 C 197.636719 260.164062 201.109375 260.726562 202.90625 263.21875 C 204.699219 265.707031 204.136719 269.179688 201.648438 270.976562 C 201.609375 271.003906 197.382812 274.078125 193.617188 278.078125 C 188.890625 283.101562 188.171875 286.070312 188.449219 286.9375 C 188.464844 286.984375 190.199219 291.578125 211.457031 291.578125 C 243.410156 291.578125 262.128906 302.867188 268.992188 313.433594 C 272.339844 318.582031 272.578125 324.886719 269.640625 330.300781 C 266.71875 335.679688 261.109375 339.023438 255 339.023438 Z M 255 339.023438 "/><g clip-rule="nonzero" clip-path="url(#9424c212a8)"><path style=" stroke:none;fill-rule:evenodd;fill:#2563eb;fill-opacity:1;" d="M 168.917969 178.917969 L 10.214844 178.917969 C 5.414062 178.917969 1.511719 175.015625 1.511719 170.214844 L 1.511719 155.339844 C 1.511719 150.539062 5.414062 146.632812 10.214844 146.632812 L 168.917969 146.632812 C 173.714844 146.632812 177.621094 150.539062 177.621094 155.339844 L 177.621094 170.214844 C 177.621094 175.015625 173.714844 178.917969 168.917969 178.917969 Z M 12.628906 167.800781 L 166.503906 167.800781 L 166.503906 157.75 L 12.628906 157.75 Z M 168.917969 157.75 Z M 168.917969 157.75 "/></g><path style=" stroke:none;fill-rule:evenodd;fill:#2563eb;fill-opacity:1;" d="M 142.792969 339.023438 L 36.339844 339.023438 C 29.199219 339.023438 23.242188 333.441406 22.78125 326.3125 L 12.929688 173.71875 C 12.734375 170.652344 15.058594 168.011719 18.121094 167.8125 C 21.183594 167.613281 23.828125 169.9375 24.023438 173 L 33.875 325.59375 C 33.960938 326.890625 35.042969 327.90625 36.339844 327.90625 L 142.792969 327.90625 C 145.863281 327.90625 148.351562 330.394531 148.351562 333.464844 C 148.351562 336.535156 145.863281 339.023438 142.792969 339.023438 Z M 142.792969 339.023438 "/><path style=" stroke:none;fill-rule:evenodd;fill:#2563eb;fill-opacity:1;" d="M 157.859375 222.257812 C 157.742188 222.257812 157.621094 222.253906 157.496094 222.246094 C 154.433594 222.046875 152.109375 219.402344 152.308594 216.339844 L 155.105469 173.003906 C 155.304688 169.9375 157.949219 167.617188 161.011719 167.8125 C 164.074219 168.011719 166.398438 170.65625 166.199219 173.71875 L 163.402344 217.054688 C 163.214844 219.996094 160.765625 222.257812 157.859375 222.257812 Z M 157.859375 222.257812 "/><path style=" stroke:none;fill-rule:evenodd;fill:#2563eb;fill-opacity:1;" d="M 195.363281 147.445312 C 192.800781 147.445312 190.570312 145.691406 189.960938 143.203125 L 188.082031 135.5 C 186.65625 129.648438 182.132812 125.128906 176.285156 123.703125 L 168.582031 121.820312 C 166.089844 121.214844 164.339844 118.984375 164.339844 116.421875 C 164.339844 113.859375 166.089844 111.628906 168.582031 111.023438 L 176.285156 109.140625 C 182.132812 107.714844 186.65625 103.191406 188.082031 97.34375 L 189.960938 89.640625 C 190.570312 87.152344 192.800781 85.398438 195.363281 85.398438 C 197.925781 85.398438 200.15625 87.152344 200.761719 89.640625 L 202.644531 97.34375 C 204.070312 103.195312 208.589844 107.714844 214.441406 109.140625 L 222.144531 111.023438 C 224.632812 111.628906 226.386719 113.859375 226.386719 116.421875 C 226.386719 118.984375 224.632812 121.214844 222.144531 121.820312 L 214.441406 123.703125 C 208.589844 125.128906 204.070312 129.648438 202.644531 135.5 L 200.761719 143.203125 C 200.15625 145.691406 197.925781 147.445312 195.363281 147.445312 Z M 187.160156 116.421875 C 190.457031 118.53125 193.253906 121.324219 195.363281 124.621094 C 197.46875 121.324219 200.265625 118.53125 203.5625 116.421875 C 200.265625 114.3125 197.46875 111.515625 195.363281 108.222656 C 193.253906 111.515625 190.457031 114.3125 187.160156 116.421875 Z M 187.160156 116.421875 "/><path style=" stroke:none;fill-rule:evenodd;fill:#2563eb;fill-opacity:1;" d="M 140.476562 108.636719 C 137.914062 108.636719 135.6875 106.882812 135.078125 104.394531 L 133.585938 98.285156 C 132.558594 94.066406 129.296875 90.804688 125.078125 89.777344 L 118.96875 88.285156 C 116.476562 87.675781 114.726562 85.449219 114.726562 82.882812 C 114.726562 80.324219 116.476562 78.09375 118.96875 77.484375 L 125.078125 75.992188 C 129.296875 74.964844 132.558594 71.703125 133.585938 67.484375 L 135.078125 61.375 C 135.6875 58.886719 137.914062 57.132812 140.476562 57.132812 C 143.042969 57.132812 145.269531 58.882812 145.878906 61.375 L 147.371094 67.484375 C 148.398438 71.703125 151.660156 74.964844 155.878906 75.992188 L 161.988281 77.484375 C 164.476562 78.09375 166.230469 80.320312 166.230469 82.882812 C 166.230469 85.449219 164.476562 87.675781 161.988281 88.285156 L 155.878906 89.777344 C 151.660156 90.804688 148.398438 94.066406 147.371094 98.285156 L 145.878906 104.394531 C 145.269531 106.882812 143.039062 108.636719 140.476562 108.636719 Z M 135.992188 82.886719 C 137.691406 84.160156 139.203125 85.671875 140.476562 87.371094 C 141.753906 85.671875 143.265625 84.160156 144.960938 82.886719 C 143.265625 81.609375 141.753906 80.097656 140.476562 78.402344 C 139.203125 80.097656 137.691406 81.609375 135.992188 82.886719 Z M 135.992188 82.886719 "/><path style=" stroke:none;fill-rule:evenodd;fill:#2563eb;fill-opacity:1;" d="M 251.410156 279.164062 C 248.847656 279.164062 246.617188 277.410156 246.007812 274.921875 L 244.519531 268.8125 C 243.488281 264.59375 240.226562 261.332031 236.007812 260.300781 L 229.898438 258.8125 C 227.410156 258.203125 225.65625 255.972656 225.65625 253.410156 C 225.65625 250.847656 227.40625 248.617188 229.898438 248.011719 L 236.007812 246.519531 C 240.226562 245.492188 243.488281 242.230469 244.519531 238.011719 L 246.007812 231.902344 C 246.617188 229.414062 248.847656 227.660156 251.410156 227.660156 C 253.972656 227.660156 256.203125 229.410156 256.808594 231.902344 L 258.300781 238.011719 C 259.328125 242.230469 262.589844 245.492188 266.808594 246.519531 L 272.917969 248.011719 C 275.40625 248.617188 277.160156 250.847656 277.160156 253.410156 C 277.160156 255.972656 275.410156 258.203125 272.917969 258.8125 L 266.808594 260.300781 C 262.589844 261.332031 259.328125 264.59375 258.300781 268.8125 L 256.808594 274.921875 C 256.203125 277.410156 253.972656 279.164062 251.410156 279.164062 Z M 246.925781 253.414062 C 248.625 254.6875 250.132812 256.199219 251.410156 257.898438 C 252.6875 256.199219 254.195312 254.6875 255.894531 253.414062 C 254.195312 252.136719 252.683594 250.625 251.410156 248.929688 C 250.132812 250.625 248.625 252.136719 246.925781 253.414062 Z M 246.925781 253.414062 "/><g style="fill:#2563eb;fill-opacity:1;"><g transform="translate(281.865855, 324.003842)"><path style="stroke:none" d="M 9.078125 0.296875 C 7.941406 0.296875 6.9375 0.0664062 6.0625 -0.390625 C 5.195312 -0.859375 4.535156 -1.5 4.078125 -2.3125 C 3.617188 -3.132812 3.390625 -4.0625 3.390625 -5.09375 C 3.390625 -6.125 3.617188 -7.046875 4.078125 -7.859375 C 4.535156 -8.671875 5.195312 -9.3125 6.0625 -9.78125 C 6.9375 -10.257812 7.941406 -10.5 9.078125 -10.5 C 10.242188 -10.5 11.257812 -10.269531 12.125 -9.8125 C 13 -9.351562 13.664062 -8.710938 14.125 -7.890625 C 14.59375 -7.078125 14.828125 -6.15625 14.828125 -5.125 C 14.828125 -3.550781 14.304688 -2.253906 13.265625 -1.234375 C 12.222656 -0.210938 10.828125 0.296875 9.078125 0.296875 Z M 9.078125 0.296875 "/></g></g></g></g></g></svg>