<svg xmlns="http://www.w3.org/2000/svg" xmlns:xlink="http://www.w3.org/1999/xlink" width="500" zoomAndPan="magnify" viewBox="0 0 375 374.999991" height="500" preserveAspectRatio="xMidYMid meet" version="1.2"><defs><clipPath id="c6c23b53e6"><path d="M 185 146.390625 L 231 146.390625 L 231 205 L 185 205 Z M 185 146.390625 "/></clipPath><clipPath id="3f6e155643"><path d="M 161 199 L 210 199 L 210 228.890625 L 161 228.890625 Z M 161 199 "/></clipPath><clipPath id="2a1a5ccebc"><path d="M 144.054688 181 L 187 181 L 187 190 L 144.054688 190 Z M 144.054688 181 "/></clipPath><clipPath id="dc0719eb98"><path d="M 146 187 L 180 187 L 180 228.890625 L 146 228.890625 Z M 146 187 "/></clipPath></defs><g id="44b4bbeb4b"><path style=" stroke:none;fill-rule:evenodd;fill:#ffffff;fill-opacity:1;" d="M 191.839844 212.359375 C 191.550781 212.359375 191.269531 212.265625 191.039062 212.09375 L 177.867188 202.347656 C 177.269531 201.90625 177.140625 201.0625 177.585938 200.460938 C 178.804688 198.8125 180.597656 197.738281 182.628906 197.433594 C 184.65625 197.128906 186.683594 197.636719 188.335938 198.855469 L 191.316406 201.0625 C 192.964844 202.285156 194.042969 204.074219 194.347656 206.105469 C 194.648438 208.136719 194.144531 210.160156 192.921875 211.8125 C 192.710938 212.097656 192.390625 212.289062 192.039062 212.34375 C 191.972656 212.351562 191.90625 212.359375 191.839844 212.359375 Z M 180.699219 201.089844 L 191.410156 209.015625 C 192.183594 206.976562 191.550781 204.589844 189.714844 203.230469 L 186.730469 201.023438 C 185.660156 200.230469 184.34375 199.902344 183.027344 200.097656 C 182.164062 200.226562 181.371094 200.570312 180.699219 201.089844 Z M 180.699219 201.089844 "/><g clip-rule="nonzero" clip-path="url(#c6c23b53e6)"><path style=" stroke:none;fill-rule:evenodd;fill:#ffffff;fill-opacity:1;" d="M 191.175781 204.058594 C 190.898438 204.058594 190.617188 203.972656 190.375 203.792969 C 189.777344 203.351562 189.652344 202.507812 190.09375 201.910156 L 227.375 151.527344 C 227.851562 150.882812 227.71875 149.96875 227.070312 149.492188 C 226.757812 149.257812 226.375 149.164062 225.988281 149.21875 C 225.605469 149.277344 225.265625 149.480469 225.035156 149.796875 L 187.738281 200.195312 C 187.296875 200.792969 186.453125 200.917969 185.855469 200.476562 C 185.253906 200.035156 185.128906 199.191406 185.570312 198.59375 L 222.867188 148.191406 C 223.527344 147.300781 224.492188 146.71875 225.589844 146.554688 C 226.6875 146.390625 227.785156 146.664062 228.675781 147.324219 C 230.515625 148.683594 230.902344 151.289062 229.542969 153.132812 L 192.261719 203.511719 C 191.996094 203.871094 191.589844 204.058594 191.175781 204.058594 Z M 191.175781 204.058594 "/></g><g clip-rule="nonzero" clip-path="url(#3f6e155643)"><path style=" stroke:none;fill-rule:evenodd;fill:#ffffff;fill-opacity:1;" d="M 205.5625 228.601562 L 175.710938 228.601562 C 171.410156 228.601562 167.75 227.089844 165.125 224.226562 C 162.804688 221.695312 161.476562 218.285156 161.382812 214.625 C 161.289062 210.96875 162.4375 207.5 164.621094 204.859375 C 167.089844 201.875 170.660156 200.179688 174.953125 199.957031 C 177.210938 199.84375 178.675781 199.914062 178.738281 199.917969 C 179.480469 199.957031 180.054688 200.589844 180.015625 201.335938 C 179.976562 202.078125 179.34375 202.648438 178.597656 202.609375 C 178.5625 202.609375 177.179688 202.542969 175.089844 202.648438 C 167.324219 203.046875 163.9375 209.101562 164.078125 214.554688 C 164.21875 220.023438 167.917969 225.90625 175.710938 225.90625 L 205.5625 225.90625 C 206.0625 225.90625 206.503906 225.644531 206.742188 225.199219 C 206.855469 224.996094 207.074219 224.449219 206.695312 223.867188 C 205.378906 221.839844 201.253906 219.792969 195.003906 219.792969 C 191.925781 219.792969 187.730469 219.484375 186.863281 216.800781 C 186.40625 215.382812 187.039062 213.75 188.746094 211.945312 C 189.835938 210.796875 191 209.953125 191.050781 209.917969 C 191.65625 209.480469 192.496094 209.617188 192.933594 210.222656 C 193.367188 210.824219 193.230469 211.667969 192.628906 212.105469 C 192.617188 212.109375 191.59375 212.855469 190.679688 213.824219 C 189.535156 215.042969 189.359375 215.761719 189.429688 215.972656 C 189.429688 215.984375 189.851562 217.097656 195.003906 217.097656 C 202.753906 217.097656 207.292969 219.835938 208.957031 222.398438 C 209.765625 223.644531 209.824219 225.175781 209.113281 226.488281 C 208.40625 227.792969 207.042969 228.601562 205.5625 228.601562 Z M 205.5625 228.601562 "/></g><g clip-rule="nonzero" clip-path="url(#2a1a5ccebc)"><path style=" stroke:none;fill-rule:evenodd;fill:#ffffff;fill-opacity:1;" d="M 184.691406 189.785156 L 146.214844 189.785156 C 145.050781 189.785156 144.101562 188.835938 144.101562 187.671875 L 144.101562 184.066406 C 144.101562 182.902344 145.050781 181.957031 146.214844 181.957031 L 184.691406 181.957031 C 185.855469 181.957031 186.800781 182.902344 186.800781 184.066406 L 186.800781 187.671875 C 186.800781 188.835938 185.855469 189.785156 184.691406 189.785156 Z M 146.796875 187.089844 L 184.105469 187.089844 L 184.105469 184.652344 L 146.796875 184.652344 Z M 184.691406 184.652344 Z M 184.691406 184.652344 "/></g><g clip-rule="nonzero" clip-path="url(#dc0719eb98)"><path style=" stroke:none;fill-rule:evenodd;fill:#ffffff;fill-opacity:1;" d="M 178.359375 228.601562 L 152.546875 228.601562 C 150.816406 228.601562 149.371094 227.25 149.261719 225.519531 L 146.871094 188.523438 C 146.824219 187.78125 147.386719 187.140625 148.128906 187.089844 C 148.871094 187.042969 149.515625 187.605469 149.5625 188.347656 L 151.949219 225.347656 C 151.96875 225.660156 152.234375 225.90625 152.546875 225.90625 L 178.359375 225.90625 C 179.101562 225.90625 179.707031 226.507812 179.707031 227.253906 C 179.707031 228 179.101562 228.601562 178.359375 228.601562 Z M 178.359375 228.601562 "/></g><path style=" stroke:none;fill-rule:evenodd;fill:#ffffff;fill-opacity:1;" d="M 182.011719 200.292969 C 181.980469 200.292969 181.953125 200.289062 181.921875 200.289062 C 181.179688 200.242188 180.617188 199.597656 180.664062 198.855469 L 181.34375 188.347656 C 181.390625 187.605469 182.03125 187.042969 182.773438 187.089844 C 183.519531 187.140625 184.082031 187.78125 184.03125 188.523438 L 183.355469 199.03125 C 183.308594 199.742188 182.714844 200.292969 182.011719 200.292969 Z M 182.011719 200.292969 "/><path style=" stroke:none;fill-rule:evenodd;fill:#ffffff;fill-opacity:1;" d="M 191.105469 182.152344 C 190.480469 182.152344 189.941406 181.726562 189.792969 181.125 L 189.339844 179.257812 C 188.992188 177.839844 187.894531 176.742188 186.476562 176.394531 L 184.609375 175.941406 C 184.007812 175.792969 183.582031 175.253906 183.582031 174.632812 C 183.582031 174.007812 184.007812 173.46875 184.609375 173.320312 L 186.476562 172.867188 C 187.894531 172.519531 188.992188 171.421875 189.339844 170.003906 L 189.792969 168.136719 C 189.941406 167.535156 190.480469 167.109375 191.105469 167.109375 C 191.726562 167.109375 192.265625 167.535156 192.414062 168.136719 L 192.867188 170.003906 C 193.214844 171.421875 194.3125 172.519531 195.730469 172.867188 L 197.597656 173.320312 C 198.199219 173.46875 198.625 174.007812 198.625 174.632812 C 198.625 175.253906 198.199219 175.792969 197.597656 175.941406 L 195.730469 176.394531 C 194.3125 176.742188 193.214844 177.839844 192.867188 179.257812 L 192.414062 181.125 C 192.265625 181.726562 191.726562 182.152344 191.105469 182.152344 Z M 189.113281 174.628906 C 189.914062 175.140625 190.59375 175.820312 191.101562 176.617188 C 191.613281 175.820312 192.292969 175.140625 193.089844 174.628906 C 192.292969 174.121094 191.613281 173.441406 191.101562 172.640625 C 190.59375 173.441406 189.914062 174.121094 189.113281 174.628906 Z M 189.113281 174.628906 "/><path style=" stroke:none;fill-rule:evenodd;fill:#ffffff;fill-opacity:1;" d="M 177.796875 172.742188 C 177.175781 172.742188 176.632812 172.320312 176.488281 171.714844 L 176.125 170.234375 C 175.875 169.210938 175.085938 168.417969 174.0625 168.171875 L 172.582031 167.808594 C 171.976562 167.660156 171.554688 167.121094 171.554688 166.5 C 171.554688 165.878906 171.976562 165.335938 172.582031 165.191406 L 174.0625 164.828125 C 175.085938 164.578125 175.875 163.789062 176.125 162.765625 L 176.488281 161.285156 C 176.632812 160.679688 177.175781 160.257812 177.796875 160.257812 C 178.417969 160.257812 178.957031 160.679688 179.105469 161.285156 L 179.46875 162.765625 C 179.71875 163.789062 180.507812 164.578125 181.53125 164.828125 L 183.011719 165.191406 C 183.613281 165.335938 184.039062 165.878906 184.039062 166.5 C 184.039062 167.121094 183.617188 167.660156 183.011719 167.808594 L 181.53125 168.171875 C 180.507812 168.421875 179.714844 169.210938 179.46875 170.234375 L 179.105469 171.714844 C 178.957031 172.320312 178.417969 172.742188 177.796875 172.742188 Z M 176.710938 166.5 C 177.121094 166.808594 177.488281 167.175781 177.796875 167.585938 C 178.105469 167.175781 178.472656 166.808594 178.882812 166.5 C 178.472656 166.191406 178.105469 165.824219 177.796875 165.414062 C 177.488281 165.824219 177.121094 166.191406 176.710938 166.5 Z M 176.710938 166.5 "/><path style=" stroke:none;fill-rule:evenodd;fill:#ffffff;fill-opacity:1;" d="M 204.691406 214.089844 C 204.070312 214.089844 203.53125 213.664062 203.382812 213.058594 L 203.023438 211.578125 C 202.773438 210.554688 201.980469 209.765625 200.957031 209.515625 L 199.476562 209.152344 C 198.875 209.007812 198.449219 208.464844 198.449219 207.84375 C 198.449219 207.222656 198.875 206.683594 199.476562 206.535156 L 200.957031 206.175781 C 201.980469 205.925781 202.773438 205.132812 203.023438 204.109375 L 203.382812 202.628906 C 203.53125 202.027344 204.070312 201.601562 204.691406 201.601562 C 205.3125 201.601562 205.855469 202.027344 206 202.628906 L 206.363281 204.109375 C 206.613281 205.132812 207.402344 205.925781 208.425781 206.175781 L 209.90625 206.535156 C 210.511719 206.683594 210.9375 207.222656 210.9375 207.84375 C 210.9375 208.464844 210.511719 209.007812 209.90625 209.152344 L 208.425781 209.515625 C 207.402344 209.765625 206.613281 210.554688 206.363281 211.578125 L 206 213.058594 C 205.855469 213.664062 205.3125 214.089844 204.691406 214.089844 Z M 203.605469 207.84375 C 204.015625 208.15625 204.382812 208.519531 204.691406 208.933594 C 205 208.519531 205.367188 208.15625 205.78125 207.84375 C 205.367188 207.535156 205 207.167969 204.691406 206.757812 C 204.382812 207.167969 204.015625 207.535156 203.605469 207.84375 Z M 203.605469 207.84375 "/><g style="fill:#ffffff;fill-opacity:1;"><g transform="translate(212.07673, 224.960318)"><path style="stroke:none" d="M 2.203125 0.078125 C 1.929688 0.078125 1.6875 0.0195312 1.46875 -0.09375 C 1.257812 -0.207031 1.097656 -0.363281 0.984375 -0.5625 C 0.878906 -0.757812 0.828125 -0.984375 0.828125 -1.234375 C 0.828125 -1.484375 0.878906 -1.707031 0.984375 -1.90625 C 1.097656 -2.101562 1.257812 -2.257812 1.46875 -2.375 C 1.6875 -2.488281 1.929688 -2.546875 2.203125 -2.546875 C 2.484375 -2.546875 2.726562 -2.488281 2.9375 -2.375 C 3.15625 -2.269531 3.316406 -2.117188 3.421875 -1.921875 C 3.535156 -1.722656 3.59375 -1.5 3.59375 -1.25 C 3.59375 -0.863281 3.46875 -0.546875 3.21875 -0.296875 C 2.96875 -0.046875 2.628906 0.078125 2.203125 0.078125 Z M 2.203125 0.078125 "/></g></g></g></svg>