<svg xmlns="http://www.w3.org/2000/svg" xmlns:xlink="http://www.w3.org/1999/xlink" width="500" zoomAndPan="magnify" viewBox="0 0 375 374.999991" height="500" preserveAspectRatio="xMidYMid meet" version="1.2"><defs><clipPath id="3f4e92156b"><path d="M 261 153 L 303 153 L 303 354.761719 L 261 354.761719 Z M 261 153 "/></clipPath><clipPath id="14e1d71f76"><rect x="0" width="42" y="0" height="202"/></clipPath><clipPath id="9f8904f4d0"><path d="M 11 134 L 146 134 L 146 313.664062 L 11 313.664062 Z M 11 134 "/></clipPath><clipPath id="bbc2331478"><path d="M 166 1.109375 L 337.539062 1.109375 L 337.539062 221 L 166 221 Z M 166 1.109375 "/></clipPath><clipPath id="5c18f1e849"><path d="M 75 203 L 259 203 L 259 313.664062 L 75 313.664062 Z M 75 203 "/></clipPath><clipPath id="9badd222f2"><path d="M 1.460938 114 L 173 114 L 173 145 L 1.460938 145 Z M 1.460938 114 "/></clipPath><clipPath id="2749d2e54a"><rect x="0" width="338" y="0" height="355"/></clipPath></defs><g id="58871af3d1"><g transform="matrix(1,0,0,1,18,17)"><g clip-path="url(#2749d2e54a)"><g clip-rule="nonzero" clip-path="url(#3f4e92156b)"><g transform="matrix(1,0,0,1,261,153)"><g id="49052ae305" clip-path="url(#14e1d71f76)"><g style="fill:#ffffff;fill-opacity:1;"><g transform="translate(0.152652, 153.159198)"><path style="stroke:none" d="M 20.359375 0.65625 C 17.804688 0.65625 15.554688 0.140625 13.609375 -0.890625 C 11.660156 -1.929688 10.164062 -3.363281 9.125 -5.1875 C 8.09375 -7.019531 7.578125 -9.09375 7.578125 -11.40625 C 7.578125 -13.71875 8.09375 -15.785156 9.125 -17.609375 C 10.164062 -19.441406 11.660156 -20.882812 13.609375 -21.9375 C 15.554688 -23 17.804688 -23.53125 20.359375 -23.53125 C 22.953125 -23.53125 25.222656 -23.007812 27.171875 -21.96875 C 29.117188 -20.9375 30.609375 -19.503906 31.640625 -17.671875 C 32.679688 -15.847656 33.203125 -13.785156 33.203125 -11.484375 C 33.203125 -7.960938 32.035156 -5.054688 29.703125 -2.765625 C 27.367188 -0.484375 24.253906 0.65625 20.359375 0.65625 Z M 20.359375 0.65625 "/></g></g></g></g></g><path style=" stroke:none;fill-rule:evenodd;fill:#ffffff;fill-opacity:1;" d="M 153.804688 205.757812 C 153.730469 205.757812 153.65625 205.753906 153.582031 205.75 C 150.6875 205.628906 148.441406 203.183594 148.5625 200.292969 L 151.132812 139.1875 C 151.253906 136.292969 153.699219 134.042969 156.59375 134.167969 C 159.488281 134.289062 161.734375 136.734375 161.613281 139.628906 L 159.042969 200.730469 C 158.921875 203.550781 156.601562 205.757812 153.804688 205.757812 Z M 153.804688 205.757812 "/><g clip-rule="nonzero" clip-path="url(#9f8904f4d0)"><path style=" stroke:none;fill-rule:evenodd;fill:#ffffff;fill-opacity:1;" d="M 139.960938 313.042969 L 33.636719 313.042969 C 27 313.042969 21.46875 307.855469 21.042969 301.234375 C 21.042969 301.21875 21.039062 301.207031 21.039062 301.191406 L 11.988281 139.703125 C 11.824219 136.808594 14.039062 134.332031 16.929688 134.171875 C 19.824219 134.011719 22.296875 136.222656 22.460938 139.113281 L 31.511719 300.574219 C 31.589844 301.683594 32.519531 302.554688 33.636719 302.554688 L 139.960938 302.554688 C 142.859375 302.554688 145.207031 304.902344 145.207031 307.796875 C 145.207031 310.695312 142.859375 313.042969 139.960938 313.042969 Z M 139.960938 313.042969 "/></g><path style=" stroke:none;fill-rule:evenodd;fill:#ffffff;fill-opacity:1;" d="M 191.046875 251.484375 C 189.964844 251.484375 188.871094 251.148438 187.933594 250.457031 L 138.019531 213.519531 C 135.691406 211.796875 135.199219 208.515625 136.921875 206.1875 C 141.574219 199.902344 148.390625 195.804688 156.121094 194.648438 C 163.851562 193.496094 171.570312 195.417969 177.851562 200.070312 L 189.152344 208.429688 C 195.4375 213.078125 199.53125 219.898438 200.6875 227.628906 C 201.84375 235.359375 199.917969 243.078125 195.269531 249.359375 C 194.238281 250.75 192.65625 251.484375 191.046875 251.484375 Z M 149.074219 208.652344 L 189.363281 238.464844 C 190.449219 235.53125 190.789062 232.355469 190.3125 229.179688 C 189.570312 224.21875 186.941406 219.84375 182.914062 216.859375 L 171.613281 208.5 C 164.753906 203.425781 155.546875 203.730469 149.074219 208.652344 Z M 149.074219 208.652344 "/><g clip-rule="nonzero" clip-path="url(#bbc2331478)"><path style=" stroke:none;fill-rule:evenodd;fill:#ffffff;fill-opacity:1;" d="M 188.542969 220.03125 C 187.460938 220.03125 186.367188 219.695312 185.429688 219 C 183.101562 217.277344 182.609375 213.992188 184.332031 211.664062 L 325.613281 20.738281 C 326.464844 19.585938 326.820312 18.164062 326.605469 16.738281 C 326.394531 15.3125 325.640625 14.058594 324.488281 13.207031 C 323.332031 12.351562 321.914062 11.996094 320.492188 12.210938 C 319.070312 12.421875 317.816406 13.175781 316.960938 14.332031 L 175.621094 205.335938 C 173.898438 207.664062 170.617188 208.15625 168.289062 206.433594 C 165.957031 204.710938 165.46875 201.425781 167.191406 199.097656 L 308.527344 8.09375 C 311.046875 4.6875 314.746094 2.464844 318.9375 1.835938 C 323.136719 1.210938 327.320312 2.253906 330.730469 4.777344 C 334.132812 7.292969 336.351562 10.992188 336.980469 15.191406 C 337.605469 19.386719 336.566406 23.570312 334.046875 26.976562 L 192.761719 217.90625 C 191.734375 219.296875 190.148438 220.03125 188.542969 220.03125 Z M 188.542969 220.03125 "/></g><g clip-rule="nonzero" clip-path="url(#5c18f1e849)"><path style=" stroke:none;fill-rule:evenodd;fill:#ffffff;fill-opacity:1;" d="M 243.0625 313.042969 L 129.929688 313.042969 C 113.589844 313.042969 99.683594 307.292969 89.714844 296.417969 C 80.902344 286.804688 75.851562 273.851562 75.496094 259.941406 C 75.136719 246.050781 79.507812 232.875 87.796875 222.84375 C 97.175781 211.496094 110.75 205.054688 127.050781 204.214844 C 135.613281 203.777344 141.179688 204.058594 141.410156 204.070312 C 144.304688 204.21875 146.527344 206.6875 146.375 209.582031 C 146.226562 212.472656 143.757812 214.691406 140.867188 214.542969 C 140.71875 214.539062 135.492188 214.285156 127.589844 214.691406 C 98.246094 216.199219 85.453125 239.066406 85.980469 259.671875 C 86.511719 280.328125 100.492188 302.554688 129.933594 302.554688 L 243.0625 302.554688 C 244.90625 302.554688 246.53125 301.582031 247.417969 299.953125 C 247.828125 299.191406 248.640625 297.191406 247.238281 295.035156 C 242.269531 287.382812 226.679688 279.664062 203.050781 279.664062 C 191.335938 279.664062 175.371094 278.476562 172.0625 268.226562 C 170.3125 262.804688 172.726562 256.570312 179.234375 249.695312 C 183.363281 245.335938 187.800781 242.121094 187.984375 241.988281 C 190.335938 240.292969 193.613281 240.824219 195.308594 243.171875 C 197 245.523438 196.46875 248.800781 194.121094 250.496094 C 194.085938 250.519531 190.207031 253.339844 186.757812 257.003906 C 182.300781 261.742188 181.84375 264.386719 182.042969 265.003906 C 182.175781 265.414062 183.085938 266.339844 185.644531 267.210938 C 189.476562 268.511719 195.332031 269.175781 203.050781 269.175781 C 232.464844 269.175781 249.707031 279.578125 256.035156 289.320312 C 259.136719 294.089844 259.359375 299.9375 256.636719 304.957031 C 253.925781 309.945312 248.726562 313.042969 243.0625 313.042969 Z M 243.0625 313.042969 "/></g><g clip-rule="nonzero" clip-path="url(#9badd222f2)"><path style=" stroke:none;fill-rule:evenodd;fill:#ffffff;fill-opacity:1;" d="M 163.964844 144.652344 L 93.304688 144.652344 C 90.410156 144.652344 88.0625 142.304688 88.0625 139.40625 C 88.0625 136.511719 90.410156 134.164062 93.304688 134.164062 L 161.609375 134.164062 L 161.609375 125.203125 L 11.984375 125.203125 L 11.984375 134.164062 L 42.488281 134.164062 C 45.386719 134.164062 47.734375 136.511719 47.734375 139.40625 C 47.734375 142.304688 45.386719 144.652344 42.488281 144.652344 L 9.632812 144.652344 C 5.144531 144.652344 1.496094 141.003906 1.496094 136.519531 L 1.496094 122.851562 C 1.496094 118.363281 5.144531 114.714844 9.632812 114.714844 L 163.964844 114.714844 C 168.449219 114.714844 172.101562 118.363281 172.101562 122.851562 L 172.101562 136.519531 C 172.101562 141.003906 168.449219 144.652344 163.964844 144.652344 Z M 163.964844 144.652344 "/></g><path style=" stroke:none;fill-rule:evenodd;fill:#ffffff;fill-opacity:1;" d="M 242.429688 248.117188 C 240.011719 248.117188 237.90625 246.460938 237.335938 244.113281 L 235.964844 238.5 C 235.03125 234.671875 232.074219 231.714844 228.246094 230.78125 L 222.632812 229.410156 C 220.285156 228.839844 218.628906 226.734375 218.628906 224.316406 C 218.628906 221.898438 220.285156 219.792969 222.632812 219.222656 L 228.246094 217.851562 C 232.074219 216.917969 235.03125 213.960938 235.964844 210.132812 L 237.332031 204.519531 C 237.90625 202.171875 240.011719 200.519531 242.429688 200.519531 C 244.847656 200.519531 246.949219 202.171875 247.523438 204.519531 L 248.894531 210.132812 C 249.828125 213.960938 252.785156 216.917969 256.609375 217.851562 L 262.226562 219.222656 C 264.574219 219.792969 266.226562 221.898438 266.226562 224.316406 C 266.226562 226.734375 264.574219 228.839844 262.226562 229.410156 L 256.609375 230.78125 C 252.785156 231.714844 249.828125 234.671875 248.894531 238.5 L 247.523438 244.113281 C 246.953125 246.460938 244.847656 248.117188 242.429688 248.117188 Z M 238.535156 224.316406 C 240 225.4375 241.308594 226.746094 242.429688 228.210938 C 243.550781 226.746094 244.859375 225.4375 246.324219 224.316406 C 244.859375 223.195312 243.550781 221.886719 242.429688 220.425781 C 241.308594 221.886719 240 223.195312 238.535156 224.316406 Z M 238.535156 224.316406 "/><path style=" stroke:none;fill-rule:evenodd;fill:#ffffff;fill-opacity:1;" d="M 195.546875 117.707031 C 193.128906 117.707031 191.023438 116.054688 190.449219 113.703125 L 189.082031 108.089844 C 188.148438 104.265625 185.1875 101.304688 181.363281 100.371094 L 175.75 99.003906 C 173.402344 98.429688 171.746094 96.324219 171.746094 93.90625 C 171.746094 91.488281 173.398438 89.386719 175.75 88.8125 L 181.363281 87.441406 C 185.1875 86.507812 188.148438 83.550781 189.082031 79.726562 L 190.449219 74.113281 C 191.023438 71.761719 193.128906 70.109375 195.546875 70.109375 C 197.964844 70.109375 200.066406 71.761719 200.640625 74.113281 L 202.011719 79.726562 C 202.945312 83.550781 205.902344 86.507812 209.726562 87.445312 L 215.34375 88.8125 C 217.691406 89.386719 219.34375 91.488281 219.34375 93.910156 C 219.34375 96.328125 217.691406 98.429688 215.34375 99.003906 L 209.726562 100.375 C 205.902344 101.308594 202.945312 104.265625 202.011719 108.09375 L 200.640625 113.707031 C 200.066406 116.054688 197.960938 117.707031 195.546875 117.707031 Z M 191.652344 93.910156 C 193.117188 95.03125 194.425781 96.335938 195.546875 97.800781 C 196.664062 96.335938 197.972656 95.03125 199.4375 93.910156 C 197.972656 92.789062 196.664062 91.480469 195.546875 90.015625 C 194.425781 91.480469 193.117188 92.789062 191.652344 93.910156 Z M 191.652344 93.910156 "/><path style=" stroke:none;fill-rule:evenodd;fill:#ffffff;fill-opacity:1;" d="M 140.761719 90.28125 C 138.34375 90.28125 136.238281 88.628906 135.664062 86.277344 L 134.511719 81.550781 C 133.796875 78.628906 131.539062 76.371094 128.617188 75.65625 L 123.890625 74.503906 C 121.542969 73.929688 119.890625 71.824219 119.890625 69.40625 C 119.890625 66.988281 121.542969 64.886719 123.890625 64.3125 L 128.617188 63.160156 C 131.539062 62.445312 133.796875 60.1875 134.511719 57.265625 L 135.664062 52.539062 C 136.238281 50.1875 138.34375 48.535156 140.761719 48.535156 C 143.179688 48.535156 145.28125 50.1875 145.855469 52.539062 L 147.007812 57.265625 C 147.722656 60.1875 149.980469 62.445312 152.902344 63.160156 L 157.632812 64.3125 C 159.980469 64.886719 161.632812 66.992188 161.632812 69.410156 C 161.632812 71.828125 159.980469 73.929688 157.632812 74.503906 L 152.902344 75.65625 C 149.980469 76.371094 147.722656 78.628906 147.007812 81.550781 L 145.855469 86.277344 C 145.28125 88.625 143.175781 90.28125 140.761719 90.28125 Z M 138.792969 69.40625 C 139.5 70.011719 140.15625 70.667969 140.761719 71.375 C 141.367188 70.667969 142.023438 70.011719 142.726562 69.40625 C 142.023438 68.804688 141.367188 68.144531 140.761719 67.441406 C 140.15625 68.144531 139.5 68.804688 138.792969 69.40625 Z M 138.792969 69.40625 "/><path style=" stroke:none;fill-rule:evenodd;fill:#ffffff;fill-opacity:1;" d="M 93.304688 187.667969 C 92.621094 187.667969 91.929688 187.53125 91.277344 187.257812 L 90.527344 186.945312 C 76.144531 180.921875 59.648438 180.921875 45.269531 186.945312 L 44.515625 187.257812 C 42.898438 187.9375 41.046875 187.761719 39.585938 186.789062 C 38.121094 185.816406 37.246094 184.175781 37.246094 182.421875 L 37.246094 119.957031 C 37.246094 117.0625 39.59375 114.714844 42.488281 114.714844 L 93.304688 114.714844 C 96.203125 114.714844 98.550781 117.0625 98.550781 119.957031 L 98.550781 182.421875 C 98.550781 184.179688 97.671875 185.816406 96.210938 186.789062 C 95.335938 187.371094 94.324219 187.667969 93.304688 187.667969 Z M 47.734375 125.203125 L 47.734375 174.910156 C 54.253906 172.914062 61.011719 171.90625 67.898438 171.90625 C 74.78125 171.90625 81.539062 172.914062 88.0625 174.910156 L 88.0625 125.203125 Z M 47.734375 125.203125 "/></g></g></g></svg>