<svg xmlns="http://www.w3.org/2000/svg" width="500" height="500" viewBox="0 0 500 500" version="1.1">
	<path d="M 0 250.002 L 0 500.004 250.250 499.752 L 500.500 499.500 500.752 249.750 L 501.004 0 250.502 0 L 0 0 0 250.002 M 0.492 250.500 C 0.492 388, 0.608 444.101, 0.750 375.170 C 0.892 306.238, 0.892 193.738, 0.750 125.170 C 0.608 56.601, 0.492 113, 0.492 250.500 M 196.981 197.306 C 195.878 198.575, 184.478 213.763, 171.648 231.056 C 158.818 248.350, 147.686 262.500, 146.910 262.500 C 144.456 262.500, 144.530 255.516, 147.008 253.207 C 148.667 251.662, 149.058 250.286, 148.813 246.867 L 148.500 242.500 120.500 242.500 L 92.500 242.500 92.199 247.166 C 91.949 251.029, 92.225 251.937, 93.801 252.437 C 95.542 252.990, 95.810 254.889, 96.951 274.770 C 98.386 299.784, 99.054 303.513, 102.258 304.372 C 106.543 305.520, 173.754 305.069, 176.376 303.875 C 179.507 302.448, 180.567 298.514, 178.621 295.544 C 176.381 292.126, 170.417 289.791, 161.679 288.910 C 157.335 288.472, 153.523 287.856, 153.208 287.542 C 152.894 287.227, 154.130 285.430, 155.955 283.547 C 159.271 280.126, 159.568 278.714, 158.754 270.250 C 158.661 269.288, 169.479 253.770, 182.793 235.766 C 207.339 202.573, 209.116 199.516, 205.800 196.200 C 203.810 194.210, 199.167 194.792, 196.981 197.306 M 179 228.190 C 167.175 244.218, 156.263 259.003, 154.752 261.046 C 152.623 263.922, 152.286 264.989, 153.252 265.780 C 154.191 266.549, 160.510 258.671, 178.750 233.993 C 192.088 215.948, 203 200.693, 203 200.092 C 203 196.529, 198.285 202.049, 179 228.190 M 134.721 215.564 C 133.982 216.974, 132.330 218.661, 131.051 219.314 C 129.771 219.966, 128.724 220.950, 128.724 221.500 C 128.724 222.050, 129.771 223.034, 131.051 223.686 C 132.330 224.339, 133.982 226.026, 134.721 227.436 C 136.419 230.677, 138.600 230.731, 139.398 227.552 C 139.736 226.205, 141.197 224.518, 142.645 223.802 C 145.892 222.196, 145.983 220.861, 142.949 219.314 C 141.670 218.661, 140.018 216.974, 139.279 215.564 C 138.541 214.154, 137.515 213, 137 213 C 136.485 213, 135.459 214.154, 134.721 215.564 M 211 233.861 L 211 255 219.843 255 C 227.170 255, 229.441 254.601, 233.093 252.673 C 244.512 246.645, 247.602 230.811, 239.288 220.931 C 235.095 215.947, 229.618 213.784, 219.768 213.223 L 211 212.723 211 233.861 M 259.071 215.250 C 258.587 216.488, 255.710 223.575, 252.677 231 C 249.644 238.425, 246.232 246.863, 245.096 249.750 L 243.029 255 248.363 255 C 253.667 255, 253.706 254.977, 255.285 250.957 L 256.873 246.914 264.600 247.207 L 272.328 247.500 273.499 251 C 274.631 254.385, 274.853 254.510, 280.267 254.798 L 285.864 255.096 277.432 234.421 C 272.794 223.049, 269 213.578, 269 213.373 C 269 213.168, 266.964 213, 264.475 213 C 260.710 213, 259.803 213.378, 259.071 215.250 M 296.537 215.773 C 280.357 224.664, 281.463 246.266, 298.500 254.114 C 304.410 256.836, 314.856 256.329, 319.936 253.072 C 322.059 251.712, 318.381 243.614, 316.079 244.580 C 315.211 244.944, 312.437 245.463, 309.916 245.732 C 301.674 246.614, 296 241.605, 296 233.450 C 296 230.614, 296.778 229.022, 299.489 226.311 C 302.806 222.994, 303.263 222.841, 308.739 223.221 C 311.908 223.441, 315.198 223.945, 316.050 224.341 C 317.184 224.867, 318.057 224.103, 319.300 221.496 C 321.628 216.616, 321.500 216.107, 317.532 214.449 C 311.694 212.010, 302.310 212.602, 296.537 215.773 M 333.907 215.327 C 331.483 216.606, 328.157 219.560, 326.516 221.890 C 324.005 225.455, 323.478 227.265, 323.191 233.313 C 322.901 239.393, 323.219 241.193, 325.251 245 C 332.315 258.232, 350.794 259.793, 360.202 247.954 C 364.172 242.957, 365.763 234.798, 363.997 228.490 C 360.355 215.481, 345.732 209.084, 333.907 215.327 M 368.667 213.667 C 368.300 214.033, 368 223.483, 368 234.667 L 368 255 373.468 255 L 378.937 255 379.218 243.369 L 379.500 231.737 386.835 243.369 L 394.170 255 399.085 255 L 404 255 404 233.945 L 404 212.890 399.250 213.195 L 394.500 213.500 394.210 225.500 L 393.920 237.500 385.970 225.250 L 378.019 213 373.676 213 C 371.288 213, 369.033 213.300, 368.667 213.667 M 152.443 225.482 C 151.518 227.695, 150.093 229.189, 148.535 229.581 C 143.400 230.869, 143.378 234.205, 148.498 235.156 C 149.625 235.365, 151.264 237.156, 152.256 239.263 C 153.224 241.319, 154.425 243, 154.926 243 C 155.426 243, 156.660 241.323, 157.668 239.274 C 158.835 236.899, 160.405 235.341, 161.995 234.980 C 165.856 234.101, 165.703 231.321, 161.701 229.648 C 159.401 228.687, 157.914 227.191, 157.187 225.108 C 155.774 221.054, 154.243 221.175, 152.443 225.482 M 221 234.031 L 221 246 223.600 246 C 225.224 246, 227.477 244.723, 229.600 242.600 C 232.427 239.773, 232.999 238.466, 232.996 234.850 C 232.992 229.327, 230.010 224.262, 226.281 223.443 C 224.751 223.108, 222.938 222.660, 222.250 222.448 C 221.298 222.155, 221 224.918, 221 234.031 M 339.421 223.407 C 333.060 226.202, 331.594 237.747, 336.923 243.077 C 342.865 249.019, 351.976 245.974, 353.563 237.515 C 354.377 233.176, 352.774 226.993, 350.259 224.774 C 347.648 222.471, 342.912 221.873, 339.421 223.407 M 262.255 232.841 L 260.111 238 264.055 238 C 268.508 238, 268.697 237.415, 266.125 231.591 L 264.399 227.682 262.255 232.841 M 153.543 231.931 C 152.803 233.128, 154.684 234.313, 156.016 233.490 C 157.135 232.799, 156.400 231, 155 231 C 154.515 231, 153.859 231.419, 153.543 231.931 M 96 247.500 C 96 248.793, 99.389 249, 120.500 249 C 141.611 249, 145 248.793, 145 247.500 C 145 246.207, 141.611 246, 120.500 246 C 99.389 246, 96 246.207, 96 247.500 M 100.015 254.750 C 100.024 255.713, 100.689 265.950, 101.494 277.500 C 102.299 289.050, 102.967 298.837, 102.979 299.250 C 102.991 299.663, 107.120 300, 112.155 300 C 120.882 300, 121.234 299.917, 119.693 298.213 C 117.088 295.335, 115 289.388, 115 284.848 C 115 275.112, 122.044 267.500, 132.347 266.102 C 139.706 265.103, 141 263.873, 141 257.878 L 141 253 120.500 253 C 101.637 253, 100.001 253.140, 100.015 254.750 M 142 267.442 C 142 268.019, 153.673 277, 154.424 277 C 154.741 277, 155 276.147, 155 275.104 C 155 272.257, 148.490 267, 144.965 267 C 143.334 267, 142 267.199, 142 267.442 M 170.721 270.564 C 169.982 271.974, 168.315 273.661, 167.018 274.314 C 163.467 276.099, 163.429 277.905, 166.916 279.121 C 168.859 279.798, 170.236 281.094, 170.614 282.600 C 171.420 285.811, 174.594 285.755, 175.407 282.515 C 175.785 281.009, 176.981 279.792, 178.443 279.425 C 182.146 278.496, 182.364 276.240, 178.923 274.460 C 177.268 273.604, 175.495 271.801, 174.982 270.452 C 173.786 267.306, 172.409 267.342, 170.721 270.564 M 127.216 271.988 C 123.946 273.472, 122.472 274.946, 120.988 278.216 C 117.730 285.396, 118.929 291.902, 124.450 297 L 127.157 299.500 151.079 299.801 C 171.345 300.055, 175 299.882, 175 298.664 C 175 296.344, 168.481 293.913, 159.949 293.053 C 155.582 292.613, 151.332 291.690, 150.505 291.004 C 148.548 289.380, 148.589 286.032, 150.602 283.158 C 151.483 281.900, 152.046 280.747, 151.852 280.597 C 137.137 269.144, 135.072 268.423, 127.216 271.988 M 213 282 C 209.289 285.711, 211.213 289.172, 218.003 291.001 C 222.543 292.223, 223.658 293.502, 221.964 295.544 C 220.537 297.262, 216.691 297.440, 213.849 295.919 C 211.336 294.574, 210.293 295.443, 211.980 297.476 C 213.645 299.483, 222.304 299.544, 223.950 297.560 C 224.607 296.769, 224.999 294.856, 224.822 293.310 C 224.547 290.907, 223.776 290.271, 219.500 288.919 C 214.016 287.184, 212.618 284.810, 216.011 282.994 C 217.518 282.187, 218.999 282.153, 221.071 282.875 C 223.361 283.673, 224 283.603, 224 282.555 C 224 279.464, 215.943 279.057, 213 282 M 229 289.417 C 229 297.269, 229.271 299, 230.500 299 C 231.583 299, 232 297.889, 232 295 L 232 291 237 291 L 242 291 242 295 C 242 297.889, 242.417 299, 243.500 299 C 244.729 299, 245 297.269, 245 289.417 C 245 282.198, 244.692 279.935, 243.750 280.244 C 243.063 280.470, 242.360 282.307, 242.190 284.327 L 241.879 288 237 288 L 232.121 288 231.810 284.327 C 231.640 282.307, 230.938 280.470, 230.250 280.244 C 229.308 279.935, 229 282.198, 229 289.417 M 250.667 280.667 C 250.300 281.033, 250 285.308, 250 290.167 C 250 297.352, 250.280 299, 251.500 299 C 252.728 299, 253 297.278, 253 289.500 C 253 280.792, 252.486 278.847, 250.667 280.667 M 258.667 280.667 C 258.300 281.033, 258 285.308, 258 290.167 C 258 297.229, 258.292 299, 259.454 299 C 260.553 299, 260.981 297.358, 261.204 292.286 L 261.500 285.571 266.836 292.286 C 274.214 301.569, 275.147 301.281, 274.788 289.831 C 274.598 283.790, 274.089 280.526, 273.295 280.263 C 272.448 279.982, 272.003 281.974, 271.795 286.967 L 271.500 294.071 266.021 287.036 C 260.523 279.975, 259.899 279.434, 258.667 280.667 M 280 289.500 L 280 299 287 299 C 291 299, 294 298.571, 294 298 C 294 297.450, 291.525 297, 288.500 297 C 283.056 297, 283 296.970, 283 294 C 283 291.111, 283.167 291, 287.500 291 C 290.833 291, 292 290.611, 292 289.500 C 292 288.389, 290.833 288, 287.500 288 C 283.367 288, 283 287.796, 283 285.500 C 283 283.167, 283.333 283, 288 283 C 291.778 283, 293 282.633, 293 281.500 C 293 280.321, 291.611 280, 286.500 280 L 280 280 280 289.500 M 304.667 280.667 C 304.300 281.033, 304 285.328, 304 290.210 L 304 299.088 311.132 298.794 C 316.990 298.552, 318.504 298.138, 319.605 296.475 C 320.734 294.769, 320.715 294.005, 319.486 291.635 C 318.455 289.648, 318.315 288.281, 319.009 286.983 C 320.215 284.730, 319.371 282.269, 316.948 280.972 C 314.897 279.875, 305.688 279.646, 304.667 280.667 M 324.750 280.570 C 324.337 280.990, 324 285.308, 324 290.167 C 324 297.352, 324.280 299, 325.500 299 C 326.414 299, 327 298.069, 327 296.617 C 327 294.815, 327.671 294.101, 329.750 293.691 C 331.948 293.258, 332.967 293.736, 334.822 296.074 C 338.056 300.148, 340.856 300.077, 337.841 295.999 C 335.696 293.098, 335.684 292.952, 337.478 291.640 C 339.798 289.943, 339.938 284.509, 337.717 282.289 C 336.003 280.574, 326.043 279.254, 324.750 280.570 M 343.667 280.667 C 343.300 281.033, 343 285.308, 343 290.167 C 343 297.352, 343.280 299, 344.500 299 C 345.728 299, 346 297.278, 346 289.500 C 346 280.792, 345.486 278.847, 343.667 280.667 M 355.357 280.992 C 349.654 283.293, 348.137 291.864, 352.636 296.364 C 354.731 298.458, 356.231 299, 359.936 299 C 365.614 299, 367 297.767, 367 292.717 C 367 287.842, 364.725 288.117, 364 293.079 C 363.568 296.036, 363.083 296.541, 360.423 296.800 C 353.844 297.443, 350.118 289.851, 354.583 284.902 C 356.221 283.087, 357.264 282.856, 361.750 283.316 C 367.418 283.898, 368.524 283.016, 364.453 281.161 C 361.509 279.819, 358.405 279.762, 355.357 280.992 M 372 289.417 C 372 297.269, 372.271 299, 373.500 299 C 374.583 299, 375 297.889, 375 295 L 375 291 380 291 L 385 291 385 295 C 385 297.889, 385.417 299, 386.500 299 C 387.729 299, 388 297.269, 388 289.417 C 388 282.198, 387.692 279.935, 386.750 280.244 C 386.063 280.470, 385.360 282.307, 385.190 284.327 L 384.879 288 380 288 L 375.121 288 374.810 284.327 C 374.640 282.307, 373.938 280.470, 373.250 280.244 C 372.308 279.935, 372 282.198, 372 289.417 M 390.694 280.639 C 389.484 281.850, 391.124 283, 394.059 283 L 397 283 397 291 C 397 297.444, 397.292 299, 398.500 299 C 399.708 299, 400 297.444, 400 291 L 400 283 403 283 C 405 283, 406 282.500, 406 281.500 C 406 280.303, 404.519 280, 398.667 280 C 394.633 280, 391.046 280.288, 390.694 280.639 M 307 284.868 C 307 287.916, 307.121 288, 311.531 288 C 314.723 288, 316.241 287.537, 316.664 286.433 C 317.527 284.185, 315.838 282.922, 311.121 282.289 C 307.053 281.744, 307 281.777, 307 284.868 M 327 287 L 327 291.115 331.148 290.807 C 333.762 290.614, 335.702 289.853, 336.393 288.750 C 338.176 285.906, 335.951 283.549, 331.148 283.193 L 327 282.885 327 287 M 307 293.948 C 307 296.874, 307.175 296.999, 311.250 296.985 C 316.368 296.966, 318.318 295.899, 317.839 293.380 C 317.552 291.874, 316.439 291.440, 312.241 291.198 L 307 290.895 307 293.948" stroke="none" fill="#9f0909" fill-rule="evenodd"/>
</svg>